<?xml version="1.0" encoding="UTF-8"?>
<!DOCTYPE svg PUBLIC "-//W3C//DTD SVG 1.1//EN" "http://www.w3.org/Graphics/SVG/1.1/DTD/svg11.dtd">
<svg xmlns="http://www.w3.org/2000/svg" version="1.1" width="1254px" height="1254px" style="shape-rendering:geometricPrecision; text-rendering:geometricPrecision; image-rendering:optimizeQuality; fill-rule:evenodd; clip-rule:evenodd" xmlns:xlink="http://www.w3.org/1999/xlink">
<g><path style="opacity:1" fill="#f9f2ec" d="M -0.5,-0.5 C 417.5,-0.5 835.5,-0.5 1253.5,-0.5C 1253.5,417.5 1253.5,835.5 1253.5,1253.5C 835.5,1253.5 417.5,1253.5 -0.5,1253.5C -0.5,835.5 -0.5,417.5 -0.5,-0.5 Z"/></g>
<g><path style="opacity:1" fill="#db837b" d="M 768.5,185.5 C 769.75,185.577 770.583,186.244 771,187.5C 772.256,199.277 776.256,209.944 783,219.5C 790.573,225.195 799.073,228.862 808.5,230.5C 792.561,232.035 781.395,240.035 775,254.5C 773.472,261.281 771.639,267.948 769.5,274.5C 767.44,267.153 765.274,259.819 763,252.5C 756.199,239.34 745.366,232.007 730.5,230.5C 738.155,228.558 745.488,225.725 752.5,222C 757.936,217.229 761.769,211.395 764,204.5C 765.928,198.261 767.428,191.928 768.5,185.5 Z"/></g>
<g><path style="opacity:1" fill="#837970" d="M 689.5,297.5 C 698.011,296.351 706.677,296.351 715.5,297.5C 707.025,297.766 698.358,297.766 689.5,297.5 Z"/></g>
<g><path style="opacity:1" fill="#756d65" d="M 681.5,298.5 C 679.485,299.924 677.152,300.59 674.5,300.5C 676.515,299.076 678.848,298.41 681.5,298.5 Z"/></g>
<g><path style="opacity:1" fill="#f7f1ec" d="M 598.5,507.5 C 597.4,509.277 596.566,511.277 596,513.5C 596.58,475.871 600.247,438.537 607,401.5C 609.744,389.435 613.578,377.768 618.5,366.5C 631.781,336.049 654.448,316.549 686.5,308C 691.833,307.333 697.167,307.333 702.5,308C 679.389,329.099 660.889,353.599 647,381.5C 627.761,422.312 611.594,464.312 598.5,507.5 Z"/></g>
<g><path style="opacity:1" fill="#ce9a54" d="M 855.5,310.5 C 856.497,310.47 857.164,310.97 857.5,312C 859.154,320.298 861.987,328.131 866,335.5C 872.38,342.274 880.214,346.274 889.5,347.5C 880.399,349.062 872.566,353.062 866,359.5C 861.423,367.228 858.423,375.561 857,384.5C 855.628,373.254 851.128,363.421 843.5,355C 837.381,351.94 831.047,349.44 824.5,347.5C 840.437,345.729 850.27,337.062 854,321.5C 854.936,317.886 855.436,314.22 855.5,310.5 Z"/></g>
<g><path style="opacity:1" fill="#da817a" d="M 469.5,665.5 C 468.075,669.373 467.075,673.373 466.5,677.5C 433.776,649.429 411.609,614.429 400,572.5C 380.765,479.526 408.265,403.693 482.5,345C 522.534,316.659 567.201,302.992 616.5,304C 617.416,304.374 618.25,304.874 619,305.5C 619.978,308.669 619.478,311.503 617.5,314C 537.367,315.303 475.867,349.469 433,416.5C 390.23,496.441 395.897,572.774 450,645.5C 456.004,652.671 462.504,659.338 469.5,665.5 Z"/></g>
<g><path style="opacity:1" fill="#352215" d="M 544.5,714.5 C 540.966,717.097 537.3,719.43 533.5,721.5C 523.795,724.29 514.128,724.123 504.5,721C 492.066,714.876 481.233,706.709 472,696.5C 468.217,690.767 466.384,684.434 466.5,677.5C 467.075,673.373 468.075,669.373 469.5,665.5C 473.34,656.822 477.84,648.489 483,640.5C 507.9,606.265 533.566,572.598 560,539.5C 561.826,536.397 563.16,533.063 564,529.5C 568.448,522.718 573.281,516.218 578.5,510C 580.025,508.991 581.692,508.491 583.5,508.5C 583.508,505.455 583.841,502.455 584.5,499.5C 586.991,506.221 589.991,513.554 593.5,521.5C 594.906,522.668 596.072,522.335 597,520.5C 598.645,520.693 600.479,520.86 602.5,521C 606.958,524.196 611.125,526.029 615,526.5C 618.761,525.285 619.928,522.952 618.5,519.5C 617.719,520.729 617.219,522.062 617,523.5C 615.711,520.926 613.878,520.259 611.5,521.5C 629.887,501.084 648.054,480.417 666,459.5C 682.56,438.935 697.56,417.269 711,394.5C 722.91,373.431 731.243,351.097 736,327.5C 738.251,318.086 734.584,312.752 725,311.5C 718.747,312.876 713.247,315.71 708.5,320C 688.882,338.606 672.716,359.773 660,383.5C 639.202,425.062 622.036,468.062 608.5,512.5C 606.446,509.764 603.946,507.431 601,505.5C 600.085,506.328 599.419,507.328 599,508.5C 598.601,508.272 598.435,507.938 598.5,507.5C 611.594,464.312 627.761,422.312 647,381.5C 660.889,353.599 679.389,329.099 702.5,308C 697.167,307.333 691.833,307.333 686.5,308C 654.448,316.549 631.781,336.049 618.5,366.5C 617.347,365.687 617.347,364.687 618.5,363.5C 617.559,363.511 616.892,363.011 616.5,362C 617,360.5 617.5,359 618,357.5C 619,357.833 620,358.167 621,358.5C 621.667,357.833 621.667,357.167 621,356.5C 619.261,354.717 617.428,353.05 615.5,351.5C 614.145,353.846 612.479,355.846 610.5,357.5C 623.736,329.256 645.069,310.256 674.5,300.5C 677.152,300.59 679.485,299.924 681.5,298.5C 684.054,297.612 686.721,297.279 689.5,297.5C 698.358,297.766 707.025,297.766 715.5,297.5C 720.424,293.763 725.758,290.597 731.5,288C 735.5,287.333 739.5,287.333 743.5,288C 753.86,292.087 762.693,298.254 770,306.5C 770.494,313.324 767.328,315.824 760.5,314C 752.337,305.655 749.17,307.155 751,318.5C 768.464,336.986 775.798,358.986 773,384.5C 767.11,419.454 750.943,448.621 724.5,472C 713.072,482.097 701.072,491.431 688.5,500C 668.333,512.833 648.167,525.667 628,538.5C 629.001,542.539 629.834,546.706 630.5,551C 629.395,556.386 627.562,561.553 625,566.5C 623.249,569.92 620.582,572.254 617,573.5C 598.606,613.287 579.94,652.954 561,692.5C 556.437,700.559 550.937,707.892 544.5,714.5 Z"/></g>
<g><path style="opacity:1" fill="#f6f1ec" d="M 747.5,330.5 C 753.042,335.214 756.876,341.214 759,348.5C 763.798,367.007 763.131,385.34 757,403.5C 744.621,434.046 725.121,459.213 698.5,479C 673.398,498.03 647.064,514.53 619.5,528.5C 654.598,493.919 685.765,456.252 713,415.5C 725.152,395.862 735.152,375.196 743,353.5C 744.932,345.904 746.432,338.237 747.5,330.5 Z"/></g>
<g><path style="opacity:1" fill="#f8f1ec" d="M 611.5,521.5 C 609.647,522.124 607.98,521.457 606.5,519.5C 607.325,517.199 607.992,514.865 608.5,512.5C 622.036,468.062 639.202,425.062 660,383.5C 672.716,359.773 688.882,338.606 708.5,320C 713.247,315.71 718.747,312.876 725,311.5C 734.584,312.752 738.251,318.086 736,327.5C 731.243,351.097 722.91,373.431 711,394.5C 697.56,417.269 682.56,438.935 666,459.5C 648.054,480.417 629.887,501.084 611.5,521.5 Z"/></g>
<g><path style="opacity:1" fill="#ece9e8" d="M 734.5,298.5 C 738.986,297.994 742.819,299.328 746,302.5C 746.058,308.774 743.224,310.607 737.5,308C 735.083,306.374 732.583,304.874 730,303.5C 729.333,302.833 729.333,302.167 730,301.5C 731.652,300.601 733.152,299.601 734.5,298.5 Z"/></g>
<g><path style="opacity:1" fill="#db837b" d="M 891.5,426.5 C 902.16,425.328 906.327,429.994 904,440.5C 898.333,447.167 892.667,447.167 887,440.5C 885.309,434.61 886.809,429.944 891.5,426.5 Z"/></g>
<g><path style="opacity:1" fill="#db837b" d="M 810.5,439.5 C 820.029,437.915 825.696,441.748 827.5,451C 825.727,460.4 820.06,464.066 810.5,462C 801.202,454.422 801.202,446.922 810.5,439.5 Z"/></g>
<g><path style="opacity:1" fill="#392416" d="M 618.5,366.5 C 613.578,377.768 609.744,389.435 607,401.5C 600.247,438.537 596.58,475.871 596,513.5C 596.566,511.277 597.4,509.277 598.5,507.5C 598.435,507.938 598.601,508.272 599,508.5C 599.419,507.328 600.085,506.328 601,505.5C 603.946,507.431 606.446,509.764 608.5,512.5C 607.992,514.865 607.325,517.199 606.5,519.5C 607.98,521.457 609.647,522.124 611.5,521.5C 613.878,520.259 615.711,520.926 617,523.5C 617.219,522.062 617.719,520.729 618.5,519.5C 619.928,522.952 618.761,525.285 615,526.5C 611.125,526.029 606.958,524.196 602.5,521C 600.479,520.86 598.645,520.693 597,520.5C 596.072,522.335 594.906,522.668 593.5,521.5C 589.991,513.554 586.991,506.221 584.5,499.5C 585.589,461.016 590.423,423.016 599,385.5C 601.59,375.542 605.423,366.209 610.5,357.5C 612.479,355.846 614.145,353.846 615.5,351.5C 617.428,353.05 619.261,354.717 621,356.5C 621.667,357.167 621.667,357.833 621,358.5C 620,358.167 619,357.833 618,357.5C 617.5,359 617,360.5 616.5,362C 616.892,363.011 617.559,363.511 618.5,363.5C 617.347,364.687 617.347,365.687 618.5,366.5 Z"/></g>
<g><path style="opacity:1" fill="#edcac0" d="M 612.5,538.5 C 608.107,538.457 607.774,538.957 611.5,540C 609.975,541.009 608.308,541.509 606.5,541.5C 606.227,539.549 606.893,538.049 608.5,537C 606,535.167 603.5,533.333 601,531.5C 600.5,532 600,532.5 599.5,533C 600.956,533.423 601.456,534.256 601,535.5C 598.833,537.333 596.667,539.167 594.5,541C 591.064,541.408 588.23,540.241 586,537.5C 585.998,540.051 585.164,542.051 583.5,543.5C 584.511,541.598 584.678,539.598 584,537.5C 577.404,531.804 578.071,526.471 586,521.5C 595.534,526.226 604.368,531.892 612.5,538.5 Z"/></g>
<g><path style="opacity:1" fill="#faf2ea" d="M 586.5,527.5 C 591.484,527.157 595.15,529.157 597.5,533.5C 593.96,536.115 589.96,537.115 585.5,536.5C 585.264,533.391 585.597,530.391 586.5,527.5 Z"/></g>
<g><path style="opacity:1" fill="#dd9b93" d="M 612.5,538.5 C 615.1,539.919 617.6,541.585 620,543.5C 620.371,548.759 618.537,553.092 614.5,556.5C 612.187,555.5 610.187,554.166 608.5,552.5C 607.833,551.833 607.167,551.167 606.5,550.5C 608.144,550.714 609.644,550.38 611,549.5C 611.936,545.886 612.436,542.22 612.5,538.5 Z"/></g>
<g><path style="opacity:1" fill="#db857d" d="M 606.5,550.5 C 607.167,551.167 607.833,551.833 608.5,552.5C 606.208,552.244 604.041,552.577 602,553.5C 601.333,554.833 601.333,556.167 602,557.5C 604.35,559.683 606.517,562.016 608.5,564.5C 606.808,567.231 605.142,569.898 603.5,572.5C 603.565,572.062 603.399,571.728 603,571.5C 601.667,572.167 600.333,572.833 599,573.5C 579.794,611.579 559.794,649.246 539,686.5C 536.02,690.314 532.854,693.981 529.5,697.5C 530.723,698.614 532.056,698.781 533.5,698C 537.426,696.973 541.093,695.473 544.5,693.5C 534.171,712.221 519.504,716.721 500.5,707C 495.65,703.637 490.983,700.137 486.5,696.5C 499.551,700.443 511.051,697.443 521,687.5C 545.433,645.403 569.433,603.07 593,560.5C 594.15,558.246 594.484,555.913 594,553.5C 591.692,552.359 589.859,550.692 588.5,548.5C 590.525,546.804 592.525,545.137 594.5,543.5C 598.494,545.823 602.494,548.157 606.5,550.5 Z"/></g>
<g><path style="opacity:1" fill="#ecbfb5" d="M 612.5,538.5 C 612.436,542.22 611.936,545.886 611,549.5C 609.644,550.38 608.144,550.714 606.5,550.5C 602.494,548.157 598.494,545.823 594.5,543.5C 592.525,545.137 590.525,546.804 588.5,548.5C 589.859,550.692 591.692,552.359 594,553.5C 594.484,555.913 594.15,558.246 593,560.5C 569.433,603.07 545.433,645.403 521,687.5C 511.051,697.443 499.551,700.443 486.5,696.5C 478.287,690.358 475.787,682.358 479,672.5C 489.756,653.312 501.756,634.979 515,617.5C 534.028,592.099 553.528,567.099 573.5,542.5C 576.709,544.594 580.043,544.927 583.5,543.5C 585.164,542.051 585.998,540.051 586,537.5C 588.23,540.241 591.064,541.408 594.5,541C 596.667,539.167 598.833,537.333 601,535.5C 601.456,534.256 600.956,533.423 599.5,533C 600,532.5 600.5,532 601,531.5C 603.5,533.333 606,535.167 608.5,537C 606.893,538.049 606.227,539.549 606.5,541.5C 608.308,541.509 609.975,541.009 611.5,540C 607.774,538.957 608.107,538.457 612.5,538.5 Z"/></g>
<g><path style="opacity:1" fill="#f9f7f1" d="M 567.5,564.5 C 570.902,565.558 571.402,567.558 569,570.5C 545.708,607.583 522.541,644.749 499.5,682C 496.46,684.155 493.627,683.988 491,681.5C 490.333,678.5 490.333,675.5 491,672.5C 497.332,661.164 504.166,650.164 511.5,639.5C 530.191,614.482 548.858,589.482 567.5,564.5 Z"/></g>
<g><path style="opacity:1" fill="#eab8af" d="M 603.5,572.5 C 587.165,609.506 569.998,646.173 552,682.5C 549.971,686.58 547.471,690.246 544.5,693.5C 541.093,695.473 537.426,696.973 533.5,698C 532.056,698.781 530.723,698.614 529.5,697.5C 532.854,693.981 536.02,690.314 539,686.5C 559.794,649.246 579.794,611.579 599,573.5C 600.333,572.833 601.667,572.167 603,571.5C 603.399,571.728 603.565,572.062 603.5,572.5 Z"/></g>
<g><path style="opacity:1" fill="#db837b" d="M 533.5,721.5 C 537.3,719.43 540.966,717.097 544.5,714.5C 613.116,737.743 677.782,729.243 738.5,689C 798.387,645.737 829.221,586.904 831,512.5C 834.355,507.69 838.021,507.356 842,511.5C 840.774,595.137 805.274,659.637 735.5,705C 676.644,740.185 614.31,748.185 548.5,729C 543.447,726.473 538.447,723.973 533.5,721.5 Z"/></g>
<g><path style="opacity:1" fill="#352115" d="M 258.5,745.5 C 277.833,745.5 297.167,745.5 316.5,745.5C 316.5,746.5 316.5,747.5 316.5,748.5C 308.444,747.296 302.611,750.296 299,757.5C 298.333,803.5 298.333,849.5 299,895.5C 299.883,898.102 301.383,900.269 303.5,902C 307.437,904.545 311.77,906.045 316.5,906.5C 297.167,907.833 277.833,907.833 258.5,906.5C 263.583,905.085 268.583,903.252 273.5,901C 274.794,898.913 275.961,896.746 277,894.5C 277.667,849.5 277.667,804.5 277,759.5C 273.657,751.401 267.49,747.734 258.5,748.5C 258.5,747.5 258.5,746.5 258.5,745.5 Z"/></g>
<g><path style="opacity:1" fill="#24160d" d="M 537.5,798.5 C 530.5,799.833 523.5,799.833 516.5,798.5C 523.444,797.337 530.444,797.337 537.5,798.5 Z"/></g>
<g><path style="opacity:1" fill="#b4aca3" d="M 619.5,765.5 C 620.495,776.321 620.828,787.321 620.5,798.5C 631.679,798.172 642.679,798.505 653.5,799.5C 642.167,799.5 630.833,799.5 619.5,799.5C 619.5,788.167 619.5,776.833 619.5,765.5 Z"/></g>
<g><path style="opacity:1" fill="#362216" d="M 715.5,797.5 C 728.66,795.829 740.66,798.662 751.5,806C 756.956,811.41 760.456,817.91 762,825.5C 762.333,849.5 762.667,873.5 763,897.5C 763.785,899.286 764.951,900.786 766.5,902C 770.186,902.807 773.686,902.307 777,900.5C 777.5,900.833 778,901.167 778.5,901.5C 771.917,908.28 763.917,910.78 754.5,909C 746.384,904.286 742.218,897.119 742,887.5C 727.591,907.526 708.758,913.692 685.5,906C 672.812,896.267 669.979,884.1 677,869.5C 684.826,860.353 694.659,854.52 706.5,852C 718.364,848.534 730.364,845.701 742.5,843.5C 743.145,833.979 742.312,824.645 740,815.5C 733.456,803.975 723.622,799.808 710.5,803C 703.831,805.085 697.998,808.585 693,813.5C 689.638,818.03 686.471,822.697 683.5,827.5C 682.167,822.833 682.167,818.167 683.5,813.5C 692.908,805.463 703.574,800.129 715.5,797.5 Z"/></g>
<g><path style="opacity:1" fill="#362113" d="M 948.5,885.5 C 948.5,857.833 948.5,830.167 948.5,802.5C 942.833,802.5 937.167,802.5 931.5,802.5C 931.369,801.624 931.702,800.957 932.5,800.5C 940.203,797.962 946.703,793.629 952,787.5C 957.425,780.304 962.592,772.971 967.5,765.5C 968.499,776.814 968.832,788.147 968.5,799.5C 979.5,799.5 990.5,799.5 1001.5,799.5C 1001.5,800.833 1001.5,802.167 1001.5,803.5C 990.167,803.5 978.833,803.5 967.5,803.5C 967.025,831.897 967.525,860.23 969,888.5C 972.37,898.432 979.203,902.599 989.5,901C 994.391,899.888 998.725,897.721 1002.5,894.5C 1002.83,895 1003.17,895.5 1003.5,896C 991.399,910.023 976.732,913.356 959.5,906C 952.814,900.795 949.147,893.961 948.5,885.5 Z"/></g>
<g><path style="opacity:1" fill="#352115" d="M 619.5,765.5 C 619.5,776.833 619.5,788.167 619.5,799.5C 630.833,799.5 642.167,799.5 653.5,799.5C 653.5,800.833 653.5,802.167 653.5,803.5C 642.167,803.5 630.833,803.5 619.5,803.5C 619.333,829.835 619.5,856.169 620,882.5C 621.705,896.545 629.539,902.712 643.5,901C 647.464,899.351 651.131,897.184 654.5,894.5C 654.833,895 655.167,895.5 655.5,896C 643.399,910.023 628.732,913.356 611.5,906C 606.146,902.135 602.646,896.968 601,890.5C 599.549,861.203 599.049,831.87 599.5,802.5C 594.125,802.828 588.792,802.495 583.5,801.5C 598.807,793.857 610.141,782.191 617.5,766.5C 617.957,765.702 618.624,765.369 619.5,765.5 Z"/></g>
<g><path style="opacity:1" fill="#342013" d="M 828.5,798.5 C 828.169,805.863 828.503,813.197 829.5,820.5C 830.107,820.376 830.44,820.043 830.5,819.5C 842.721,803.889 858.721,796.722 878.5,798C 894.251,801.084 903.084,810.584 905,826.5C 905.333,850.167 905.667,873.833 906,897.5C 908.921,903.386 913.754,906.386 920.5,906.5C 903.833,907.833 887.167,907.833 870.5,906.5C 874.108,905.181 877.775,904.014 881.5,903C 883.041,901.421 884.208,899.587 885,897.5C 885.667,873.5 885.667,849.5 885,825.5C 880.637,810.89 870.804,804.724 855.5,807C 845.135,810.03 836.301,815.53 829,823.5C 828.333,847.833 828.333,872.167 829,896.5C 831.508,903.171 836.341,906.504 843.5,906.5C 827.167,907.833 810.833,907.833 794.5,906.5C 797.707,905.03 801.041,903.863 804.5,903C 806.049,901.786 807.215,900.286 808,898.5C 809.132,884.219 809.632,869.885 809.5,855.5C 809.333,842.5 809.167,829.5 809,816.5C 808.484,813.966 807.317,811.8 805.5,810C 801.969,808.411 798.302,807.245 794.5,806.5C 805.604,802.981 816.938,800.314 828.5,798.5 Z"/></g>
<g><path style="opacity:1" fill="#948f8a" d="M 828.5,798.5 C 829.167,805.5 829.833,812.5 830.5,819.5C 830.44,820.043 830.107,820.376 829.5,820.5C 828.503,813.197 828.169,805.863 828.5,798.5 Z"/></g>
<g><path style="opacity:1" fill="#352215" d="M 516.5,798.5 C 523.5,799.833 530.5,799.833 537.5,798.5C 544.617,800.03 551.617,802.03 558.5,804.5C 559.833,812.167 559.833,819.833 558.5,827.5C 551.449,804.974 536.449,796.474 513.5,802C 500.839,808.532 498.005,818.032 505,830.5C 506.925,831.88 508.759,833.38 510.5,835C 520.5,839.832 530.833,843.832 541.5,847C 565.387,856.265 571.887,872.432 561,895.5C 554.621,902.442 546.788,906.942 537.5,909C 528.833,909.667 520.167,909.667 511.5,909C 503.441,906.869 495.441,904.536 487.5,902C 486.527,896.593 486.193,891.093 486.5,885.5C 486.335,882.15 486.502,878.817 487,875.5C 487.278,876.416 487.778,877.082 488.5,877.5C 497.005,901.584 513.671,910.751 538.5,905C 549.446,899.939 553.613,891.439 551,879.5C 548.5,874.333 544.667,870.5 539.5,868C 528.089,863.863 516.755,859.53 505.5,855C 487.149,844.942 482.649,830.442 492,811.5C 498.571,804.131 506.738,799.798 516.5,798.5 Z"/></g>
<g><path style="opacity:1" fill="#372215" d="M 387.5,906.5 C 372.785,906.8 358.118,906.467 343.5,905.5C 345.273,904.108 347.273,902.941 349.5,902C 350.701,901.097 351.535,899.931 352,898.5C 352.667,870.167 352.667,841.833 352,813.5C 348.571,809.184 344.071,806.851 338.5,806.5C 349.561,802.952 360.894,800.286 372.5,798.5C 372.169,805.863 372.503,813.197 373.5,820.5C 382.692,809.14 394.359,801.64 408.5,798C 429.04,794.842 442.54,803.009 449,822.5C 449.333,846.5 449.667,870.5 450,894.5C 451.775,902.766 456.942,906.766 465.5,906.5C 448.5,907.833 431.5,907.833 414.5,906.5C 418.108,905.181 421.775,904.014 425.5,903C 427.049,901.786 428.215,900.286 429,898.5C 429.667,873.833 429.667,849.167 429,824.5C 425.769,812.945 418.102,806.945 406,806.5C 392.735,807.764 381.735,813.43 373,823.5C 372.333,847.833 372.333,872.167 373,896.5C 373.795,898.901 374.962,901.068 376.5,903C 380.161,904.593 383.828,905.759 387.5,906.5 Z"/></g>
<g><path style="opacity:1" fill="#a0978c" d="M 931.5,802.5 C 937.167,802.5 942.833,802.5 948.5,802.5C 948.5,830.167 948.5,857.833 948.5,885.5C 947.502,858.338 947.169,831.005 947.5,803.5C 941.974,803.821 936.64,803.488 931.5,802.5 Z"/></g>
<g><path style="opacity:1" fill="#f7f1ec" d="M 740.5,846.5 C 741.495,858.989 741.829,871.656 741.5,884.5C 732.987,896.514 721.321,901.681 706.5,900C 692.994,893.156 689.16,882.656 695,868.5C 699.908,860.795 706.741,855.628 715.5,853C 723.662,850.112 731.995,847.945 740.5,846.5 Z"/></g>
<g><path style="opacity:1" fill="#bfbab6" d="M 740.5,846.5 C 740.56,845.957 740.893,845.624 741.5,845.5C 742.825,858.661 742.825,871.661 741.5,884.5C 741.829,871.656 741.495,858.989 740.5,846.5 Z"/></g>
<g><path style="opacity:1" fill="#968f88" d="M 488.5,877.5 C 487.778,877.082 487.278,876.416 487,875.5C 486.502,878.817 486.335,882.15 486.5,885.5C 485.518,882.038 485.185,878.371 485.5,874.5C 486.5,874.5 487.5,874.5 488.5,874.5C 488.5,875.5 488.5,876.5 488.5,877.5 Z"/></g>
<g><path style="opacity:1" fill="#1c0a04" d="M 343.5,905.5 C 358.118,906.467 372.785,906.8 387.5,906.5C 370.995,907.827 354.329,907.827 337.5,906.5C 339.396,905.534 341.396,905.201 343.5,905.5 Z"/></g>
<g><path style="opacity:1" fill="#dc857d" d="M 755.5,957.5 C 763.507,957.334 771.507,957.5 779.5,958C 790.334,961.502 793.834,968.669 790,979.5C 787.974,983.026 785.141,985.693 781.5,987.5C 785.25,994.002 789.25,1000.34 793.5,1006.5C 790.894,1007.65 788.227,1007.82 785.5,1007C 781.748,1000.83 777.748,994.828 773.5,989C 769.848,988.501 766.182,988.335 762.5,988.5C 762.5,994.833 762.5,1001.17 762.5,1007.5C 760.167,1007.5 757.833,1007.5 755.5,1007.5C 755.5,990.833 755.5,974.167 755.5,957.5 Z"/></g>
<g><path style="opacity:1" fill="#db827b" d="M 624.5,956.5 C 632.874,955.069 639.874,957.402 645.5,963.5C 644.333,965.167 643.167,966.833 642,968.5C 637.302,964.283 631.802,962.783 625.5,964C 620.167,968 620.167,972 625.5,976C 632.382,978.068 638.882,980.901 645,984.5C 649.998,995.515 646.832,1003.02 635.5,1007C 626.426,1009.08 618.759,1006.75 612.5,1000C 613.68,998.104 615.18,996.604 617,995.5C 620.805,998.568 625.138,1000.57 630,1001.5C 634.474,1001.27 637.808,999.268 640,995.5C 640.687,993.08 640.187,990.913 638.5,989C 632.555,986.543 626.555,984.21 620.5,982C 614.888,977.824 613.055,972.324 615,965.5C 617.406,961.592 620.572,958.592 624.5,956.5 Z"/></g>
<g><path style="opacity:1" fill="#da8179" d="M 716.5,963.5 C 708.167,963.5 699.833,963.5 691.5,963.5C 691.5,968.5 691.5,973.5 691.5,978.5C 698.833,978.5 706.167,978.5 713.5,978.5C 713.5,980.5 713.5,982.5 713.5,984.5C 706.167,984.5 698.833,984.5 691.5,984.5C 691.179,990.026 691.512,995.36 692.5,1000.5C 700.5,1000.5 708.5,1000.5 716.5,1000.5C 716.5,1002.5 716.5,1004.5 716.5,1006.5C 705.833,1006.5 695.167,1006.5 684.5,1006.5C 684.5,990.167 684.5,973.833 684.5,957.5C 695.167,957.5 705.833,957.5 716.5,957.5C 716.5,959.5 716.5,961.5 716.5,963.5 Z"/></g>
<g><path style="opacity:1" fill="#e7ada6" d="M 509.5,957.5 C 510.468,959.607 510.802,961.941 510.5,964.5C 502.167,964.5 493.833,964.5 485.5,964.5C 493.316,963.508 501.316,963.174 509.5,963.5C 509.5,961.5 509.5,959.5 509.5,957.5 Z"/></g>
<g><path style="opacity:1" fill="#f9f2ed" d="M 762.5,964.5 C 768.593,964.139 774.593,964.639 780.5,966C 783.902,969.719 784.402,973.886 782,978.5C 781.097,979.701 779.931,980.535 778.5,981C 773.177,981.499 767.844,981.666 762.5,981.5C 762.5,975.833 762.5,970.167 762.5,964.5 Z"/></g>
<g><path style="opacity:1" fill="#f0d3cf" d="M 716.5,963.5 C 708.684,964.492 700.684,964.826 692.5,964.5C 692.5,968.833 692.5,973.167 692.5,977.5C 699.687,977.175 706.687,977.509 713.5,978.5C 706.167,978.5 698.833,978.5 691.5,978.5C 691.5,973.5 691.5,968.5 691.5,963.5C 699.833,963.5 708.167,963.5 716.5,963.5 Z"/></g>
<g><path style="opacity:1" fill="#dd847d" d="M 509.5,957.5 C 509.5,959.5 509.5,961.5 509.5,963.5C 501.316,963.174 493.316,963.508 485.5,964.5C 484.514,968.97 484.181,973.637 484.5,978.5C 491.833,978.5 499.167,978.5 506.5,978.5C 506.5,980.833 506.5,983.167 506.5,985.5C 499.5,985.5 492.5,985.5 485.5,985.5C 485.5,990.5 485.5,995.5 485.5,1000.5C 493.833,1000.5 502.167,1000.5 510.5,1000.5C 510.5,1002.5 510.5,1004.5 510.5,1006.5C 499.5,1006.5 488.5,1006.5 477.5,1006.5C 477.5,990.167 477.5,973.833 477.5,957.5C 488.167,957.5 498.833,957.5 509.5,957.5 Z"/></g>
<g><path style="opacity:1" fill="#dc7f78" d="M 260.5,979.5 C 290.169,979.333 319.835,979.5 349.5,980C 350.833,981.333 350.833,982.667 349.5,984C 319.833,984.667 290.167,984.667 260.5,984C 259.272,982.51 259.272,981.01 260.5,979.5 Z"/></g>
<g><path style="opacity:1" fill="#dc817b" d="M 904.5,979.5 C 934.5,979.5 964.5,979.5 994.5,979.5C 994.5,981.167 994.5,982.833 994.5,984.5C 964.831,984.667 935.165,984.5 905.5,984C 904.62,982.644 904.286,981.144 904.5,979.5 Z"/></g>
<g><path style="opacity:1" fill="#dc8680" d="M 823.5,957.5 C 836.167,957.5 848.833,957.5 861.5,957.5C 861.5,959.833 861.5,962.167 861.5,964.5C 856.5,964.5 851.5,964.5 846.5,964.5C 846.5,978.5 846.5,992.5 846.5,1006.5C 843.833,1006.5 841.167,1006.5 838.5,1006.5C 838.5,992.5 838.5,978.5 838.5,964.5C 833.5,964.5 828.5,964.5 823.5,964.5C 823.5,962.167 823.5,959.833 823.5,957.5 Z"/></g>
<g><path style="opacity:1" fill="#db827a" d="M 397.5,957.5 C 404.175,957.334 410.842,957.5 417.5,958C 431.566,959.565 438.899,967.398 439.5,981.5C 439.173,995.997 431.84,1004.5 417.5,1007C 410.842,1007.5 404.175,1007.67 397.5,1007.5C 397.5,990.833 397.5,974.167 397.5,957.5 Z"/></g>
<g><path style="opacity:1" fill="#f9f3ee" d="M 404.5,964.5 C 409.844,964.334 415.177,964.501 420.5,965C 431.829,970.781 434.996,979.614 430,991.5C 427.303,996.436 423.136,999.27 417.5,1000C 413.179,1000.5 408.846,1000.67 404.5,1000.5C 404.5,988.5 404.5,976.5 404.5,964.5 Z"/></g>
<g><path style="opacity:1" fill="#dc837b" d="M 554.5,957.5 C 561.877,956.689 568.877,957.856 575.5,961C 577.916,964.026 577.083,966.193 573,967.5C 568.362,964.067 563.195,962.9 557.5,964C 553.108,966.963 552.441,970.63 555.5,975C 561.78,977.818 568.113,980.485 574.5,983C 580.086,988.44 580.92,994.606 577,1001.5C 568.149,1008.54 558.649,1009.37 548.5,1004C 543.255,1001.05 543.255,998.219 548.5,995.5C 552.316,998.682 556.649,1000.35 561.5,1000.5C 569.336,1001.5 572.503,998.165 571,990.5C 570.167,989.667 569.333,988.833 568.5,988C 563.012,986.393 557.678,984.393 552.5,982C 546.888,977.824 545.055,972.324 547,965.5C 549.028,962.308 551.528,959.641 554.5,957.5 Z"/></g>
<g><path style="opacity:1" fill="#edc3c0" d="M 713.5,984.5 C 706.687,985.491 699.687,985.825 692.5,985.5C 692.5,990.5 692.5,995.5 692.5,1000.5C 691.512,995.36 691.179,990.026 691.5,984.5C 698.833,984.5 706.167,984.5 713.5,984.5 Z"/></g>
<g><path style="opacity:1" fill="#e9b9b2" d="M 716.5,1000.5 C 717.468,1002.61 717.802,1004.94 717.5,1007.5C 706.321,1007.83 695.321,1007.49 684.5,1006.5C 695.167,1006.5 705.833,1006.5 716.5,1006.5C 716.5,1004.5 716.5,1002.5 716.5,1000.5 Z"/></g>
</svg>
